<svg xmlns="http://www.w3.org/2000/svg" width="48" height="48" id="feedback"><g transform="translate(0 -1004.362)"><circle cx="24" cy="1028.362" r="24" fill="#3a6c87"></circle><path fill="#f9b536" d="M33.535 1032.81a9.25 9.25 0 1 1 4.213-4.545l.021.231 1.231 5.866-5.248-1.514z"></path><path style="line-height:normal;text-indent:0;text-align:start;text-decoration-line:none;text-decoration-style:solid;text-decoration-color:#000;text-transform:none;block-progression:tb;isolation:auto;mix-blend-mode:normal" fill="#0c5286" fill-rule="evenodd" d="M-469.29 148c.243.32.458.656.651 1h9.131a.5.5 0 1 0 0-1h-9.781zm1.47 3c.09.33.164.663.215 1h3.3a.5.5 0 1 0 0-1h-3.515z" color="#000" font-family="sans-serif" font-weight="400" overflow="visible" transform="translate(494.5 877.862)"></path><path style="line-height:normal;text-indent:0;text-align:start;text-decoration-line:none;text-decoration-style:solid;text-decoration-color:#000;text-transform:none;block-progression:tb;isolation:auto;mix-blend-mode:normal" fill="#0c5286" fill-rule="evenodd" d="M-470.492 1162.361a.5.5 0 1 0 0 1h10.98a.5.5 0 1 0 0-1h-10.98zm0 3a.5.5 0 1 0 0 1h10.98a.5.5 0 1 0 0-1h-10.98z" color="#000" font-family="sans-serif" font-weight="400" overflow="visible" transform="translate(494.5 -142.5)"></path><path fill="#2dbca4" d="M14.483 1038.07a7.82 7.82 0 0 0 9.42-12.226 7.824 7.824 0 0 0-12.859 8.538l-.008.036-1.034 4.94 4.417-1.276z"></path><path fill="none" stroke="#0c5286" stroke-linecap="round" stroke-linejoin="round" d="M14.008 1028.362h8.984m-8.984 3h8.984m-8.992 3h4"></path></g></svg>